<svg width="387" height="129" viewBox="0 0 387 129" fill="none" xmlns="http://www.w3.org/2000/svg">
<g clip-path="url(#clip0_29885_31868)">
<path d="M9.07749 117.568L7.97461 113.764L2.20429 115.618L3.30717 119.423L9.07749 117.568Z" fill="#FFE098" fill-opacity="0.4"/>
<path d="M138.824 24.8263L134.725 20.6465L130.006 24.2663L134.106 28.4461L138.824 24.8263Z" fill="#FFE098" fill-opacity="0.4"/>
<path d="M340.7 32.8059L340.436 29.2207L334.364 28.5927L334.629 32.1779L340.7 32.8059Z" fill="#F6F5FC"/>
<path d="M117.797 45.7173L120.443 44.8516L118.751 39.903L116.105 40.7688L117.797 45.7173Z" fill="#FFE098" fill-opacity="0.4"/>
<path d="M58.4051 52.4157L55.3887 48.4688L44.5233 56.5295L47.5397 60.4765L58.4051 52.4157Z" fill="#ED7878"/>
<path d="M65.9042 45.1357L63.7031 41.9785L60.1357 44.7122L62.3368 47.8694L65.9042 45.1357Z" fill="#ED7878"/>
<path d="M54.6712 125.623L54.3848 121.672L43.3277 119.982L43.6141 123.933L54.6712 125.623Z" fill="#FFE098" fill-opacity="0.4"/>
<path d="M295.363 33.0402L290.639 29.4531L287.888 34.8493L292.612 38.4363L295.363 33.0402Z" fill="#DDC1FF"/>
<path d="M49.7915 124.731L48.4375 121.072L40.2439 122.329L41.5979 125.988L49.7915 124.731Z" fill="#FFE098" fill-opacity="0.4"/>
<path d="M8.71186 22.7486L9.40234 19.3691L-0.87036 15.4246L-1.56084 18.8041L8.71186 22.7486Z" fill="#F6F5FC"/>
<path d="M22.3201 59.7946L17.6484 58.627L15.4915 68.7736L20.1631 69.9412L22.3201 59.7946Z" fill="#F6F5FC"/>
<path d="M114.703 23.0684L118.855 21.084L115.507 16.1724L111.355 18.1568L114.703 23.0684Z" fill="#F6F5FC"/>
<path d="M393.914 68.8686L392.596 64.4355H383.464L384.782 68.8686H393.914Z" fill="#ED7878"/>
<path d="M53.327 122.763L49.6973 117.867L42.1839 122.059L45.8136 126.955L53.327 122.763Z" fill="#FFE098" fill-opacity="0.4"/>
<path d="M61.1282 57.9437L58.877 55.3906L56.6249 57.3853L58.8761 59.9384L61.1282 57.9437Z" fill="#FFE098" fill-opacity="0.4"/>
<path d="M359.115 88.1996L362.436 85.3125L355.089 76.8585L351.769 79.7456L359.115 88.1996Z" fill="#F6F5FC"/>
<path d="M8.60197 91.1164L12.9434 91.2734L10.6714 81.0562L6.32997 80.8992L8.60197 91.1164Z" fill="#ED7878"/>
<path d="M362.605 82.6279L359.504 81.6523L360.889 89.3106L363.991 90.2862L362.605 82.6279Z" fill="#DDC1FF"/>
<path d="M20.2238 53.8174L17.5488 51.4082L14.6051 54.6785L17.2801 57.0878L20.2238 53.8174Z" fill="#F6F5FC"/>
<path d="M370.785 128.567L374.43 128.949L373.244 123.294L369.599 122.912L370.785 128.567Z" fill="#F6F5FC"/>
<path d="M61.4664 108.031L56.1836 105.828L54.4386 114.55L59.7214 116.753L61.4664 108.031Z" fill="#FFE098" fill-opacity="0.4"/>
<path d="M297.008 74.6556L294.893 70.0195L286.846 74.0171L288.962 78.6532L297.008 74.6556Z" fill="#ED7878"/>
<path d="M256.008 117.946L253.324 115.969L250.274 120.398L252.958 122.376L256.008 117.946Z" fill="#ED7878"/>
<path d="M335.061 28.2017L337.168 25.9785L334.441 23.3885L332.334 25.6117L335.061 28.2017Z" fill="#ED7878"/>
<path d="M30.8912 48.1774L27.7344 44.7852L22.2461 49.0245L25.4029 52.4167L30.8912 48.1774Z" fill="#F6F5FC"/>
<path d="M150.885 6.76975L154.727 5.07812L150.328 -4.43758L146.486 -2.74595L150.885 6.76975Z" fill="#DDC1FF"/>
<path d="M274.956 30.7844L271.785 30.6152L271.728 35.0524L274.899 35.2215L274.956 30.7844Z" fill="#ED7878"/>
<path d="M294.052 114.431L290.676 111.277L286.292 115.713L289.668 118.867L294.052 114.431Z" fill="#ED7878"/>
<path d="M26.0761 42.0847L29.9824 39.875L18.9971 26.3878L15.0908 28.5975L26.0761 42.0847Z" fill="#F6F5FC"/>
<path d="M273.895 44.0483L274.594 41.6113L269.032 38.5657L268.334 41.0027L273.895 44.0483Z" fill="#F6F5FC"/>
<path d="M379.583 92.6822L381.68 91.0762L376.286 84.523L374.19 86.129L379.583 92.6822Z" fill="#F6F5FC"/>
<path d="M122.429 1.11449L121.967 -1.67188L116.242 -2.25764L116.704 0.528729L122.429 1.11449Z" fill="#F6F5FC"/>
<path d="M345.499 111.181L346.721 108.982L343.143 106.252L341.921 108.451L345.499 111.181Z" fill="#ED7878"/>
<path d="M192.59 41.641L189.084 40.7695L187.915 45.8182L191.421 46.6896L192.59 41.641Z" fill="#F6F5FC"/>
<path d="M292.419 60.1013L295.234 59.8086L295.236 53.8406L292.421 54.1333L292.419 60.1013Z" fill="#DDC1FF"/>
<path d="M8.56129 7.20365L4.65039 5.25586L-0.763201 16.5105L3.14769 18.4583L8.56129 7.20365Z" fill="#ED7878"/>
<path d="M217.428 18.9239L213.488 14.2617L206.933 18.6475L210.873 23.3096L217.428 18.9239Z" fill="#FFE098" fill-opacity="0.4"/>
<path d="M342.188 24.6863L341.266 20.1484L335.338 19.6071L336.26 24.145L342.188 24.6863Z" fill="#FFE098" fill-opacity="0.4"/>
<path d="M186.108 73.9334L181.184 72.1758L182.782 83.4686L187.707 85.2262L186.108 73.9334Z" fill="#F6F5FC"/>
<path d="M73.7887 112.749L71.3887 111.223L68.0924 116.593L70.4925 118.119L73.7887 112.749Z" fill="#ED7878"/>
<path d="M42.9326 0.221529L39.1211 -0.796875L39.9394 4.33318L43.7509 5.35159L42.9326 0.221529Z" fill="#F6F5FC"/>
<path d="M358.849 28.2714L355.871 24.5898L351.341 27.0486L354.319 30.7302L358.849 28.2714Z" fill="#DDC1FF"/>
<path d="M227.806 39.365L225.062 37.6211L221.355 43.6632L224.098 45.4071L227.806 39.365Z" fill="#FFE098" fill-opacity="0.4"/>
<path d="M201.245 39.4045L202.715 36.2559L194.278 31.7956L192.808 34.9442L201.245 39.4045Z" fill="#F6F5FC"/>
<path d="M269.456 52.8968L267.783 49.6406L261.856 51.1114L263.529 54.3676L269.456 52.8968Z" fill="#DDC1FF"/>
<path d="M65.9651 32.5223L66.5352 28.9023L59.2146 29.9198L58.6445 33.5398L65.9651 32.5223Z" fill="#F6F5FC"/>
<path d="M140.84 105.897L138.473 103.352L132.118 109.291L134.485 111.837L140.84 105.897Z" fill="#DDC1FF"/>
<path d="M351.566 77.4651L348.584 74.2285L342.475 79.4018L345.457 82.6383L351.566 77.4651Z" fill="#ED7878"/>
<path d="M165.029 110.574L162.008 109.615L163.365 115.978L166.386 116.936L165.029 110.574Z" fill="#FFE098" fill-opacity="0.4"/>
</g>
<defs>
<clipPath id="clip0_29885_31868">
<rect width="800" height="560" fill="white" transform="translate(-206.059 -431)"/>
</clipPath>
</defs>
</svg>
