<svg width="21" height="20" viewBox="0 0 21 20" fill="none" xmlns="http://www.w3.org/2000/svg">
<path d="M10.5001 1.66666C15.1001 1.66666 18.8334 5.39999 18.8334 9.99999C18.8334 14.6 15.1001 18.3333 10.5001 18.3333C5.90008 18.3333 2.16675 14.6 2.16675 9.99999C2.16675 5.39999 5.90008 1.66666 10.5001 1.66666ZM10.5001 16.6667C14.1834 16.6667 17.1667 13.6833 17.1667 9.99999C17.1667 6.31666 14.1834 3.33332 10.5001 3.33332C6.81675 3.33332 3.83341 6.31666 3.83341 9.99999C3.83341 13.6833 6.81675 16.6667 10.5001 16.6667ZM10.5001 9.16666H13.8334V10.8333H10.5001V13.3333L7.16675 9.99999L10.5001 6.66666V9.16666Z" fill="white"/>
</svg>
