<svg width="1390" height="265" viewBox="0 0 1390 265" fill="none" xmlns="http://www.w3.org/2000/svg">
<path d="M14.1163 89.624H35.6622V198.988H14.1163V89.624ZM71.9131 134.053L73.5476 145.643L73.2504 144.603C75.5288 140.542 78.7483 137.273 82.9089 134.796C87.0695 132.221 92.1712 130.933 98.214 130.933C104.356 130.933 109.457 132.765 113.519 136.431C117.68 139.997 119.809 144.653 119.909 150.398V198.988H99.1055V158.125C99.0065 155.252 98.214 152.974 96.728 151.29C95.3412 149.507 92.9637 148.615 89.5956 148.615C84.7416 148.615 80.8782 150.894 78.0054 155.451C75.2316 159.908 73.8448 165.604 73.8448 172.539V198.988H53.0418V134.053H71.9131ZM139.931 105.523H160.734V133.756H176.485V149.953H160.734V198.988H139.931V149.953H129.827V133.756H139.931V105.523ZM216.836 200.771C208.911 200.771 202.175 199.285 196.628 196.314C191.179 193.342 187.019 189.231 184.146 183.98C181.273 178.73 179.837 172.687 179.837 165.852C179.837 159.314 181.521 153.42 184.889 148.17C188.257 142.919 192.764 138.759 198.411 135.688C204.057 132.518 210.348 130.933 217.282 130.933C226.594 130.933 234.222 133.657 240.165 139.105C246.208 144.455 250.121 152.231 251.904 162.434L201.383 178.482L196.776 167.189L233.33 154.856L229.021 156.788C228.228 154.212 226.792 151.983 224.712 150.101C222.73 148.12 219.709 147.129 215.647 147.129C210.992 147.129 207.277 148.714 204.503 151.884C201.729 155.054 200.342 159.314 200.342 164.663C200.342 170.706 201.977 175.313 205.246 178.482C208.515 181.553 212.527 183.089 217.282 183.089C219.56 183.089 221.74 182.693 223.82 181.9C225.999 181.108 228.129 180.067 230.21 178.78L239.422 194.233C235.955 196.215 232.191 197.8 228.129 198.988C224.167 200.177 220.402 200.771 216.836 200.771ZM278.314 134.053L280.246 151.884L279.8 149.21C281.682 145.346 284.258 142.077 287.527 139.403C290.796 136.629 294.015 134.499 297.185 133.013C300.454 131.527 302.931 130.784 304.615 130.784L303.575 151.587C298.721 150.993 294.56 151.785 291.093 153.965C287.626 156.144 284.951 159.017 283.069 162.583C281.187 166.149 280.246 169.815 280.246 173.579V198.988H259.591V134.053H278.314ZM331.979 134.053L333.614 145.495L333.317 144.603C335.892 140.245 339.112 136.877 342.975 134.499C346.839 132.023 351.494 130.784 356.943 130.784C362.193 130.784 366.601 131.874 370.168 134.053C373.734 136.233 376.062 139.601 377.151 144.158L376.409 144.306C379.182 140.245 382.501 136.976 386.364 134.499C390.327 132.023 394.438 130.784 398.697 130.784C405.136 130.784 410.238 132.617 414.002 136.282C417.866 139.848 419.847 144.504 419.946 150.25V198.988H399.292V158.868C399.193 155.995 398.747 153.668 397.954 151.884C397.162 150.002 395.329 148.962 392.457 148.764C389.088 148.764 386.216 149.953 383.838 152.33C381.56 154.609 379.826 157.58 378.637 161.246C377.548 164.812 377.003 168.527 377.003 172.39V198.988H356.2V158.868C356.101 155.995 355.556 153.668 354.565 151.884C353.674 150.002 351.792 148.962 348.919 148.764C345.65 148.764 342.876 149.953 340.598 152.33C338.418 154.609 336.734 157.531 335.546 161.097C334.456 164.663 333.911 168.329 333.911 172.093V198.988H313.108V134.053H331.979ZM433.956 134.053H454.759V198.988H433.956V134.053ZM433.51 111.021C433.51 107.95 434.699 105.424 437.076 103.443C439.553 101.462 442.178 100.471 444.952 100.471C447.725 100.471 450.251 101.462 452.53 103.443C454.907 105.424 456.096 107.95 456.096 111.021C456.096 114.092 454.907 116.618 452.53 118.6C450.251 120.482 447.725 121.423 444.952 121.423C442.178 121.423 439.553 120.482 437.076 118.6C434.699 116.618 433.51 114.092 433.51 111.021ZM474.845 105.523H495.648V133.756H511.399V149.953H495.648V198.988H474.845V149.953H464.741V133.756H474.845V105.523ZM525.895 105.523H546.698V133.756H562.449V149.953H546.698V198.988H525.895V149.953H515.791V133.756H525.895V105.523ZM602.8 200.771C594.875 200.771 588.139 199.285 582.591 196.314C577.143 193.342 572.982 189.231 570.11 183.98C567.237 178.73 565.8 172.687 565.8 165.852C565.8 159.314 567.484 153.42 570.852 148.17C574.221 142.919 578.728 138.759 584.374 135.688C590.021 132.518 596.311 130.933 603.246 130.933C612.558 130.933 620.185 133.657 626.129 139.105C632.172 144.455 636.085 152.231 637.868 162.434L587.346 178.482L582.74 167.189L619.294 154.856L614.985 156.788C614.192 154.212 612.756 151.983 610.675 150.101C608.694 148.12 605.673 147.129 601.611 147.129C596.955 147.129 593.24 148.714 590.467 151.884C587.693 155.054 586.306 159.314 586.306 164.663C586.306 170.706 587.941 175.313 591.21 178.482C594.479 181.553 598.491 183.089 603.246 183.089C605.524 183.089 607.703 182.693 609.784 181.9C611.963 181.108 614.093 180.067 616.173 178.78L625.386 194.233C621.919 196.215 618.154 197.8 614.093 198.988C610.13 200.177 606.366 200.771 602.8 200.771ZM664.426 134.053L666.061 145.643L665.764 144.603C668.042 140.542 671.262 137.273 675.422 134.796C679.583 132.221 684.685 130.933 690.727 130.933C696.869 130.933 701.971 132.765 706.032 136.431C710.193 139.997 712.323 144.653 712.422 150.398V198.988H691.619V158.125C691.52 155.252 690.727 152.974 689.241 151.29C687.855 149.507 685.477 148.615 682.109 148.615C677.255 148.615 673.392 150.894 670.519 155.451C667.745 159.908 666.358 165.604 666.358 172.539V198.988H645.555V134.053H664.426ZM732.445 105.523H753.248V133.756H768.999V149.953H753.248V198.988H732.445V149.953H722.34V133.756H732.445V105.523Z" fill="#335DBF"/>
<path d="M14.1163 77.5469H35.6622V186.911H14.1163V77.5469ZM71.9131 121.976L73.5476 133.566L73.2504 132.526C75.5288 128.465 78.7483 125.196 82.9089 122.719C87.0695 120.143 92.1712 118.856 98.214 118.856C104.356 118.856 109.457 120.688 113.519 124.354C117.68 127.92 119.809 132.576 119.909 138.321V186.911H99.1055V146.048C99.0065 143.175 98.214 140.897 96.728 139.213C95.3412 137.43 92.9637 136.538 89.5956 136.538C84.7416 136.538 80.8782 138.817 78.0054 143.373C75.2316 147.831 73.8448 153.527 73.8448 160.462V186.911H53.0418V121.976H71.9131ZM139.931 93.4463H160.734V121.679H176.485V137.876H160.734V186.911H139.931V137.876H129.827V121.679H139.931V93.4463ZM216.836 188.694C208.911 188.694 202.175 187.208 196.628 184.236C191.179 181.265 187.019 177.154 184.146 171.903C181.273 166.653 179.837 160.61 179.837 153.775C179.837 147.237 181.521 141.343 184.889 136.092C188.257 130.842 192.764 126.682 198.411 123.611C204.057 120.441 210.348 118.856 217.282 118.856C226.594 118.856 234.222 121.58 240.165 127.028C246.208 132.378 250.121 140.154 251.904 150.357L201.383 166.405L196.776 155.112L233.33 142.779L229.021 144.711C228.228 142.135 226.792 139.906 224.712 138.024C222.73 136.043 219.709 135.052 215.647 135.052C210.992 135.052 207.277 136.637 204.503 139.807C201.729 142.977 200.342 147.237 200.342 152.586C200.342 158.629 201.977 163.235 205.246 166.405C208.515 169.476 212.527 171.012 217.282 171.012C219.56 171.012 221.74 170.615 223.82 169.823C225.999 169.03 228.129 167.99 230.21 166.703L239.422 182.156C235.955 184.137 232.191 185.722 228.129 186.911C224.167 188.1 220.402 188.694 216.836 188.694ZM278.314 121.976L280.246 139.807L279.8 137.133C281.682 133.269 284.258 130 287.527 127.325C290.796 124.552 294.015 122.422 297.185 120.936C300.454 119.45 302.931 118.707 304.615 118.707L303.575 139.51C298.721 138.916 294.56 139.708 291.093 141.888C287.626 144.067 284.951 146.94 283.069 150.506C281.187 154.072 280.246 157.737 280.246 161.502V186.911H259.591V121.976H278.314ZM331.979 121.976L333.614 133.418L333.317 132.526C335.892 128.167 339.112 124.799 342.975 122.422C346.839 119.945 351.494 118.707 356.943 118.707C362.193 118.707 366.601 119.797 370.168 121.976C373.734 124.155 376.062 127.524 377.151 132.08L376.409 132.229C379.182 128.167 382.501 124.898 386.364 122.422C390.327 119.945 394.438 118.707 398.697 118.707C405.136 118.707 410.238 120.54 414.002 124.205C417.866 127.771 419.847 132.427 419.946 138.173V186.911H399.292V146.791C399.193 143.918 398.747 141.59 397.954 139.807C397.162 137.925 395.329 136.885 392.457 136.687C389.088 136.687 386.216 137.876 383.838 140.253C381.56 142.531 379.826 145.503 378.637 149.169C377.548 152.735 377.003 156.45 377.003 160.313V186.911H356.2V146.791C356.101 143.918 355.556 141.59 354.565 139.807C353.674 137.925 351.792 136.885 348.919 136.687C345.65 136.687 342.876 137.876 340.598 140.253C338.418 142.531 336.734 145.454 335.546 149.02C334.456 152.586 333.911 156.252 333.911 160.016V186.911H313.108V121.976H331.979ZM433.956 121.976H454.759V186.911H433.956V121.976ZM433.51 98.9443C433.51 95.8733 434.699 93.3473 437.076 91.366C439.553 89.3848 442.178 88.3942 444.952 88.3942C447.725 88.3942 450.251 89.3848 452.53 91.366C454.907 93.3473 456.096 95.8733 456.096 98.9443C456.096 102.015 454.907 104.541 452.53 106.522C450.251 108.405 447.725 109.346 444.952 109.346C442.178 109.346 439.553 108.405 437.076 106.522C434.699 104.541 433.51 102.015 433.51 98.9443ZM474.845 93.4463H495.648V121.679H511.399V137.876H495.648V186.911H474.845V137.876H464.741V121.679H474.845V93.4463ZM525.895 93.4463H546.698V121.679H562.449V137.876H546.698V186.911H525.895V137.876H515.791V121.679H525.895V93.4463ZM602.8 188.694C594.875 188.694 588.139 187.208 582.591 184.236C577.143 181.265 572.982 177.154 570.11 171.903C567.237 166.653 565.8 160.61 565.8 153.775C565.8 147.237 567.484 141.343 570.852 136.092C574.221 130.842 578.728 126.682 584.374 123.611C590.021 120.441 596.311 118.856 603.246 118.856C612.558 118.856 620.185 121.58 626.129 127.028C632.172 132.378 636.085 140.154 637.868 150.357L587.346 166.405L582.74 155.112L619.294 142.779L614.985 144.711C614.192 142.135 612.756 139.906 610.675 138.024C608.694 136.043 605.673 135.052 601.611 135.052C596.955 135.052 593.24 136.637 590.467 139.807C587.693 142.977 586.306 147.237 586.306 152.586C586.306 158.629 587.941 163.235 591.21 166.405C594.479 169.476 598.491 171.012 603.246 171.012C605.524 171.012 607.703 170.615 609.784 169.823C611.963 169.03 614.093 167.99 616.173 166.703L625.386 182.156C621.919 184.137 618.154 185.722 614.093 186.911C610.13 188.1 606.366 188.694 602.8 188.694ZM664.426 121.976L666.061 133.566L665.764 132.526C668.042 128.465 671.262 125.196 675.422 122.719C679.583 120.143 684.685 118.856 690.727 118.856C696.869 118.856 701.971 120.688 706.032 124.354C710.193 127.92 712.323 132.576 712.422 138.321V186.911H691.619V146.048C691.52 143.175 690.727 140.897 689.241 139.213C687.855 137.43 685.477 136.538 682.109 136.538C677.255 136.538 673.392 138.817 670.519 143.373C667.745 147.831 666.358 153.527 666.358 160.462V186.911H645.555V121.976H664.426ZM732.445 93.4463H753.248V121.679H768.999V137.876H753.248V186.911H732.445V137.876H722.34V121.679H732.445V93.4463Z" fill="#A4EF30"/>
<path d="M14.1163 65.4698H35.6622V174.834H14.1163V65.4698ZM71.9131 109.899L73.5476 121.489L73.2504 120.449C75.5288 116.388 78.7483 113.118 82.9089 110.642C87.0695 108.066 92.1712 106.779 98.214 106.779C104.356 106.779 109.457 108.611 113.519 112.276C117.68 115.843 119.809 120.499 119.909 126.244V174.834H99.1055V133.971C99.0065 131.098 98.214 128.82 96.728 127.136C95.3412 125.353 92.9637 124.461 89.5956 124.461C84.7416 124.461 80.8782 126.739 78.0054 131.296C75.2316 135.754 73.8448 141.45 73.8448 148.384V174.834H53.0418V109.899H71.9131ZM139.931 81.3692H160.734V109.602H176.485V125.798H160.734V174.834H139.931V125.798H129.827V109.602H139.931V81.3692ZM216.836 176.617C208.911 176.617 202.175 175.131 196.628 172.159C191.179 169.187 187.019 165.076 184.146 159.826C181.273 154.576 179.837 148.533 179.837 141.698C179.837 135.16 181.521 129.266 184.889 124.015C188.257 118.765 192.764 114.604 198.411 111.533C204.057 108.364 210.348 106.779 217.282 106.779C226.594 106.779 234.222 109.503 240.165 114.951C246.208 120.3 250.121 128.077 251.904 138.28L201.383 154.328L196.776 143.035L233.33 130.702L229.021 132.634C228.228 130.058 226.792 127.829 224.712 125.947C222.73 123.966 219.709 122.975 215.647 122.975C210.992 122.975 207.277 124.56 204.503 127.73C201.729 130.9 200.342 135.16 200.342 140.509C200.342 146.552 201.977 151.158 205.246 154.328C208.515 157.399 212.527 158.935 217.282 158.935C219.56 158.935 221.74 158.538 223.82 157.746C225.999 156.953 228.129 155.913 230.21 154.625L239.422 170.079C235.955 172.06 232.191 173.645 228.129 174.834C224.167 176.023 220.402 176.617 216.836 176.617ZM278.314 109.899L280.246 127.73L279.8 125.055C281.682 121.192 284.258 117.923 287.527 115.248C290.796 112.475 294.015 110.345 297.185 108.859C300.454 107.373 302.931 106.63 304.615 106.63L303.575 127.433C298.721 126.839 294.56 127.631 291.093 129.81C287.626 131.99 284.951 134.863 283.069 138.429C281.187 141.995 280.246 145.66 280.246 149.425V174.834H259.591V109.899H278.314ZM331.979 109.899L333.614 121.341L333.317 120.449C335.892 116.09 339.112 112.722 342.975 110.345C346.839 107.868 351.494 106.63 356.943 106.63C362.193 106.63 366.601 107.72 370.168 109.899C373.734 112.078 376.062 115.446 377.151 120.003L376.409 120.152C379.182 116.09 382.501 112.821 386.364 110.345C390.327 107.868 394.438 106.63 398.697 106.63C405.136 106.63 410.238 108.463 414.002 112.128C417.866 115.694 419.847 120.35 419.946 126.096V174.834H399.292V134.714C399.193 131.841 398.747 129.513 397.954 127.73C397.162 125.848 395.329 124.808 392.457 124.61C389.088 124.61 386.216 125.798 383.838 128.176C381.56 130.454 379.826 133.426 378.637 137.091C377.548 140.658 377.003 144.372 377.003 148.236V174.834H356.2V134.714C356.101 131.841 355.556 129.513 354.565 127.73C353.674 125.848 351.792 124.808 348.919 124.61C345.65 124.61 342.876 125.798 340.598 128.176C338.418 130.454 336.734 133.377 335.546 136.943C334.456 140.509 333.911 144.174 333.911 147.939V174.834H313.108V109.899H331.979ZM433.956 109.899H454.759V174.834H433.956V109.899ZM433.51 86.8671C433.51 83.7962 434.699 81.2701 437.076 79.2889C439.553 77.3076 442.178 76.317 444.952 76.317C447.725 76.317 450.251 77.3076 452.53 79.2889C454.907 81.2701 456.096 83.7962 456.096 86.8671C456.096 89.938 454.907 92.4641 452.53 94.4453C450.251 96.3275 447.725 97.2686 444.952 97.2686C442.178 97.2686 439.553 96.3275 437.076 94.4453C434.699 92.4641 433.51 89.938 433.51 86.8671ZM474.845 81.3692H495.648V109.602H511.399V125.798H495.648V174.834H474.845V125.798H464.741V109.602H474.845V81.3692ZM525.895 81.3692H546.698V109.602H562.449V125.798H546.698V174.834H525.895V125.798H515.791V109.602H525.895V81.3692ZM602.8 176.617C594.875 176.617 588.139 175.131 582.591 172.159C577.143 169.187 572.982 165.076 570.11 159.826C567.237 154.576 565.8 148.533 565.8 141.698C565.8 135.16 567.484 129.266 570.852 124.015C574.221 118.765 578.728 114.604 584.374 111.533C590.021 108.364 596.311 106.779 603.246 106.779C612.558 106.779 620.185 109.503 626.129 114.951C632.172 120.3 636.085 128.077 637.868 138.28L587.346 154.328L582.74 143.035L619.294 130.702L614.985 132.634C614.192 130.058 612.756 127.829 610.675 125.947C608.694 123.966 605.673 122.975 601.611 122.975C596.955 122.975 593.24 124.56 590.467 127.73C587.693 130.9 586.306 135.16 586.306 140.509C586.306 146.552 587.941 151.158 591.21 154.328C594.479 157.399 598.491 158.935 603.246 158.935C605.524 158.935 607.703 158.538 609.784 157.746C611.963 156.953 614.093 155.913 616.173 154.625L625.386 170.079C621.919 172.06 618.154 173.645 614.093 174.834C610.13 176.023 606.366 176.617 602.8 176.617ZM664.426 109.899L666.061 121.489L665.764 120.449C668.042 116.388 671.262 113.118 675.422 110.642C679.583 108.066 684.685 106.779 690.727 106.779C696.869 106.779 701.971 108.611 706.032 112.276C710.193 115.843 712.323 120.499 712.422 126.244V174.834H691.619V133.971C691.52 131.098 690.727 128.82 689.241 127.136C687.855 125.353 685.477 124.461 682.109 124.461C677.255 124.461 673.392 126.739 670.519 131.296C667.745 135.754 666.358 141.45 666.358 148.384V174.834H645.555V109.899H664.426ZM732.445 81.3692H753.248V109.602H768.999V125.798H753.248V174.834H732.445V125.798H722.34V109.602H732.445V81.3692Z" fill="white"/>
<path fill-rule="evenodd" clip-rule="evenodd" d="M844.154 111.726L833.028 0.704102L821.901 111.726L771.03 69.7889L812.548 121.173L702.634 132.411L812.549 143.65L771.03 195.034L821.901 153.097L833.028 264.118L844.154 153.097L895.026 195.034L853.507 143.65L963.422 132.411L853.507 121.173L895.026 69.7889L844.154 111.726Z" fill="#A4EF30"/>
<path d="M905.621 89.624H973.973V110.427H927.167V135.242H967.732V156.045H927.167V198.988H905.621V89.624ZM1008.23 200.771C1002.19 200.771 996.694 199.583 991.741 197.205C986.887 194.729 983.023 190.964 980.15 185.912C977.278 180.86 975.841 174.421 975.841 166.595C975.841 159.264 977.327 152.925 980.299 147.575C983.271 142.226 987.184 138.115 992.038 135.242C996.892 132.27 1002.04 130.784 1007.49 130.784C1013.93 130.784 1018.78 131.874 1022.05 134.053C1025.42 136.134 1028.2 138.462 1030.37 141.037L1029.48 143.563L1031.41 134.053H1050.73V198.988H1029.93V184.872L1031.56 189.33C1031.37 189.33 1030.77 189.924 1029.78 191.113C1028.79 192.203 1027.3 193.54 1025.32 195.125C1023.44 196.611 1021.06 197.899 1018.19 198.988C1015.42 200.177 1012.1 200.771 1008.23 200.771ZM1014.18 183.832C1017.94 183.832 1021.11 183.039 1023.69 181.454C1026.26 179.77 1028.34 177.294 1029.93 174.025V158.125C1028.74 154.955 1026.66 152.429 1023.69 150.547C1020.82 148.665 1017.4 147.724 1013.44 147.724C1010.46 147.724 1007.69 148.516 1005.11 150.101C1002.64 151.587 1000.66 153.668 999.17 156.342C997.684 159.017 996.941 162.088 996.941 165.555C996.941 169.022 997.734 172.143 999.319 174.916C1000.9 177.69 1002.98 179.869 1005.56 181.454C1008.23 183.039 1011.11 183.832 1014.18 183.832ZM1088.81 200.326C1083.46 200.326 1078.46 199.385 1073.8 197.502C1069.25 195.62 1065.38 192.995 1062.21 189.627L1070.83 178.185C1074 181.058 1076.92 183.138 1079.6 184.426C1082.37 185.615 1084.85 186.209 1087.03 186.209C1089.6 186.209 1091.73 185.813 1093.42 185.021C1095.1 184.228 1095.94 182.94 1095.94 181.157C1095.94 179.473 1095.25 178.136 1093.86 177.145C1092.57 176.155 1090.89 175.362 1088.81 174.768C1086.73 174.074 1084.5 173.381 1082.12 172.687C1076.18 170.805 1071.87 168.081 1069.2 164.515C1066.62 160.849 1065.33 156.887 1065.33 152.627C1065.33 149.358 1066.17 146.089 1067.86 142.82C1069.64 139.452 1072.42 136.678 1076.18 134.499C1080.04 132.221 1085 131.081 1091.04 131.081C1096.49 131.081 1101.09 131.626 1104.86 132.716C1108.62 133.806 1112.19 135.589 1115.56 138.065L1107.68 150.25C1105.8 148.764 1103.67 147.526 1101.29 146.535C1099.01 145.445 1096.88 144.851 1094.9 144.752C1092.23 144.653 1090.15 145.148 1088.66 146.238C1087.18 147.228 1086.43 148.417 1086.43 149.804C1086.33 151.686 1087.03 153.172 1088.51 154.262C1090.1 155.352 1092.08 156.194 1094.46 156.788C1096.83 157.382 1099.16 158.076 1101.44 158.868C1106.1 160.453 1109.81 162.732 1112.58 165.704C1115.36 168.576 1116.75 172.44 1116.75 177.294C1116.75 181.256 1115.71 185.021 1113.62 188.587C1111.64 192.054 1108.57 194.877 1104.41 197.057C1100.35 199.236 1095.15 200.326 1088.81 200.326ZM1135.8 105.523H1156.61V133.756H1172.36V149.953H1156.61V198.988H1135.8V149.953H1125.7V133.756H1135.8V105.523ZM1183.73 134.053H1204.54V198.988H1183.73V134.053ZM1183.29 111.021C1183.29 107.95 1184.48 105.424 1186.85 103.443C1189.33 101.462 1191.96 100.471 1194.73 100.471C1197.5 100.471 1200.03 101.462 1202.31 103.443C1204.69 105.424 1205.87 107.95 1205.87 111.021C1205.87 114.092 1204.69 116.618 1202.31 118.6C1200.03 120.482 1197.5 121.423 1194.73 121.423C1191.96 121.423 1189.33 120.482 1186.85 118.6C1184.48 116.618 1183.29 114.092 1183.29 111.021ZM1240.37 134.053L1242.01 145.643L1241.71 144.603C1243.99 140.542 1247.21 137.273 1251.37 134.796C1255.53 132.221 1260.63 130.933 1266.68 130.933C1272.82 130.933 1277.92 132.765 1281.98 136.431C1286.14 139.997 1288.27 144.653 1288.37 150.398V198.988H1267.57V158.125C1267.47 155.252 1266.68 152.974 1265.19 151.29C1263.8 149.507 1261.43 148.615 1258.06 148.615C1253.2 148.615 1249.34 150.894 1246.47 155.451C1243.69 159.908 1242.31 165.604 1242.31 172.539V198.988H1221.5V134.053H1240.37ZM1338.85 231.679C1333.01 231.679 1328.06 230.985 1324 229.598C1320.03 228.212 1316.66 226.527 1313.89 224.546C1311.12 222.565 1308.64 220.683 1306.46 218.9L1318.65 204.635C1320.92 206.715 1323.55 208.696 1326.52 210.579C1329.59 212.56 1333.6 213.55 1338.56 213.55C1343.51 213.55 1347.82 212.263 1351.48 209.687C1355.25 207.21 1357.13 203.545 1357.13 198.691V184.426L1357.87 188.141C1356.29 191.509 1353.42 194.481 1349.26 197.057C1345.1 199.533 1339.65 200.771 1332.91 200.771C1327.07 200.771 1321.62 199.285 1316.57 196.314C1311.61 193.243 1307.65 189.132 1304.68 183.98C1301.71 178.73 1300.22 172.786 1300.22 166.149C1300.22 159.314 1301.81 153.271 1304.98 148.021C1308.15 142.672 1312.26 138.462 1317.31 135.391C1322.36 132.32 1327.71 130.784 1333.36 130.784C1339 130.784 1343.86 131.626 1347.92 133.31C1352.08 134.895 1355.2 136.877 1357.28 139.254L1356.54 141.186L1358.77 134.053H1377.93V198.988C1377.93 205.328 1376.15 210.925 1372.58 215.779C1369.02 220.732 1364.26 224.596 1358.32 227.369C1352.48 230.242 1345.99 231.679 1338.85 231.679ZM1321.17 165.555C1321.17 169.022 1321.96 172.143 1323.55 174.916C1325.13 177.69 1327.26 179.869 1329.94 181.454C1332.71 183.039 1335.78 183.832 1339.15 183.832C1343.41 183.832 1346.98 183.039 1349.85 181.454C1352.82 179.77 1355.25 177.294 1357.13 174.025V158.125C1355.74 154.955 1353.47 152.429 1350.3 150.547C1347.13 148.665 1343.41 147.724 1339.15 147.724C1335.78 147.724 1332.71 148.516 1329.94 150.101C1327.26 151.587 1325.13 153.668 1323.55 156.342C1321.96 159.017 1321.17 162.088 1321.17 165.555Z" fill="#335DBF"/>
<path d="M905.621 77.5469H973.973V98.3499H927.167V123.165H967.732V143.968H927.167V186.911H905.621V77.5469ZM1008.23 188.694C1002.19 188.694 996.694 187.506 991.741 185.128C986.887 182.651 983.023 178.887 980.15 173.835C977.278 168.783 975.841 162.344 975.841 154.518C975.841 147.187 977.327 140.847 980.299 135.498C983.271 130.149 987.184 126.038 992.038 123.165C996.892 120.193 1002.04 118.707 1007.49 118.707C1013.93 118.707 1018.78 119.797 1022.05 121.976C1025.42 124.056 1028.2 126.384 1030.37 128.96L1029.48 131.486L1031.41 121.976H1050.73V186.911H1029.93V172.795L1031.56 177.253C1031.37 177.253 1030.77 177.847 1029.78 179.036C1028.79 180.125 1027.3 181.463 1025.32 183.048C1023.44 184.534 1021.06 185.821 1018.19 186.911C1015.42 188.1 1012.1 188.694 1008.23 188.694ZM1014.18 171.755C1017.94 171.755 1021.11 170.962 1023.69 169.377C1026.26 167.693 1028.34 165.217 1029.93 161.948V146.048C1028.74 142.878 1026.66 140.352 1023.69 138.47C1020.82 136.588 1017.4 135.647 1013.44 135.647C1010.46 135.647 1007.69 136.439 1005.11 138.024C1002.64 139.51 1000.66 141.59 999.17 144.265C997.684 146.94 996.941 150.011 996.941 153.478C996.941 156.945 997.734 160.065 999.319 162.839C1000.9 165.613 1002.98 167.792 1005.56 169.377C1008.23 170.962 1011.11 171.755 1014.18 171.755ZM1088.81 188.248C1083.46 188.248 1078.46 187.307 1073.8 185.425C1069.25 183.543 1065.38 180.918 1062.21 177.55L1070.83 166.108C1074 168.981 1076.92 171.061 1079.6 172.349C1082.37 173.538 1084.85 174.132 1087.03 174.132C1089.6 174.132 1091.73 173.736 1093.42 172.943C1095.1 172.151 1095.94 170.863 1095.94 169.08C1095.94 167.396 1095.25 166.059 1093.86 165.068C1092.57 164.077 1090.89 163.285 1088.81 162.691C1086.73 161.997 1084.5 161.304 1082.12 160.61C1076.18 158.728 1071.87 156.004 1069.2 152.438C1066.62 148.772 1065.33 144.81 1065.33 140.55C1065.33 137.281 1066.17 134.012 1067.86 130.743C1069.64 127.375 1072.42 124.601 1076.18 122.422C1080.04 120.143 1085 119.004 1091.04 119.004C1096.49 119.004 1101.09 119.549 1104.86 120.639C1108.62 121.728 1112.19 123.512 1115.56 125.988L1107.68 138.173C1105.8 136.687 1103.67 135.449 1101.29 134.458C1099.01 133.368 1096.88 132.774 1094.9 132.675C1092.23 132.576 1090.15 133.071 1088.66 134.161C1087.18 135.151 1086.43 136.34 1086.43 137.727C1086.33 139.609 1087.03 141.095 1088.51 142.185C1090.1 143.274 1092.08 144.116 1094.46 144.711C1096.83 145.305 1099.16 145.999 1101.44 146.791C1106.1 148.376 1109.81 150.655 1112.58 153.626C1115.36 156.499 1116.75 160.363 1116.75 165.217C1116.75 169.179 1115.71 172.943 1113.62 176.51C1111.64 179.977 1108.57 182.8 1104.41 184.979C1100.35 187.159 1095.15 188.248 1088.81 188.248ZM1135.8 93.4463H1156.61V121.679H1172.36V137.876H1156.61V186.911H1135.8V137.876H1125.7V121.679H1135.8V93.4463ZM1183.73 121.976H1204.54V186.911H1183.73V121.976ZM1183.29 98.9443C1183.29 95.8733 1184.48 93.3473 1186.85 91.366C1189.33 89.3848 1191.96 88.3942 1194.73 88.3942C1197.5 88.3942 1200.03 89.3848 1202.31 91.366C1204.69 93.3473 1205.87 95.8733 1205.87 98.9443C1205.87 102.015 1204.69 104.541 1202.31 106.522C1200.03 108.405 1197.5 109.346 1194.73 109.346C1191.96 109.346 1189.33 108.405 1186.85 106.522C1184.48 104.541 1183.29 102.015 1183.29 98.9443ZM1240.37 121.976L1242.01 133.566L1241.71 132.526C1243.99 128.465 1247.21 125.196 1251.37 122.719C1255.53 120.143 1260.63 118.856 1266.68 118.856C1272.82 118.856 1277.92 120.688 1281.98 124.354C1286.14 127.92 1288.27 132.576 1288.37 138.321V186.911H1267.57V146.048C1267.47 143.175 1266.68 140.897 1265.19 139.213C1263.8 137.43 1261.43 136.538 1258.06 136.538C1253.2 136.538 1249.34 138.817 1246.47 143.373C1243.69 147.831 1242.31 153.527 1242.31 160.462V186.911H1221.5V121.976H1240.37ZM1338.85 219.602C1333.01 219.602 1328.06 218.908 1324 217.521C1320.03 216.134 1316.66 214.45 1313.89 212.469C1311.12 210.488 1308.64 208.606 1306.46 206.823L1318.65 192.558C1320.92 194.638 1323.55 196.619 1326.52 198.501C1329.59 200.483 1333.6 201.473 1338.56 201.473C1343.51 201.473 1347.82 200.185 1351.48 197.61C1355.25 195.133 1357.13 191.468 1357.13 186.614V172.349L1357.87 176.064C1356.29 179.432 1353.42 182.404 1349.26 184.979C1345.1 187.456 1339.65 188.694 1332.91 188.694C1327.07 188.694 1321.62 187.208 1316.57 184.236C1311.61 181.166 1307.65 177.054 1304.68 171.903C1301.71 166.653 1300.22 160.709 1300.22 154.072C1300.22 147.237 1301.81 141.194 1304.98 135.944C1308.15 130.594 1312.26 126.384 1317.31 123.313C1322.36 120.243 1327.71 118.707 1333.36 118.707C1339 118.707 1343.86 119.549 1347.92 121.233C1352.08 122.818 1355.2 124.799 1357.28 127.177L1356.54 129.109L1358.77 121.976H1377.93V186.911C1377.93 193.251 1376.15 198.848 1372.58 203.702C1369.02 208.655 1364.26 212.519 1358.32 215.292C1352.48 218.165 1345.99 219.602 1338.85 219.602ZM1321.17 153.478C1321.17 156.945 1321.96 160.065 1323.55 162.839C1325.13 165.613 1327.26 167.792 1329.94 169.377C1332.71 170.962 1335.78 171.755 1339.15 171.755C1343.41 171.755 1346.98 170.962 1349.85 169.377C1352.82 167.693 1355.25 165.217 1357.13 161.948V146.048C1355.74 142.878 1353.47 140.352 1350.3 138.47C1347.13 136.588 1343.41 135.647 1339.15 135.647C1335.78 135.647 1332.71 136.439 1329.94 138.024C1327.26 139.51 1325.13 141.59 1323.55 144.265C1321.96 146.94 1321.17 150.011 1321.17 153.478Z" fill="#A4EF30"/>
<path d="M905.621 65.4698H973.973V86.2727H927.167V111.088H967.732V131.891H927.167V174.834H905.621V65.4698ZM1008.23 176.617C1002.19 176.617 996.694 175.428 991.741 173.051C986.887 170.574 983.023 166.81 980.15 161.758C977.278 156.706 975.841 150.267 975.841 142.441C975.841 135.11 977.327 128.77 980.299 123.421C983.271 118.072 987.184 113.961 992.038 111.088C996.892 108.116 1002.04 106.63 1007.49 106.63C1013.93 106.63 1018.78 107.72 1022.05 109.899C1025.42 111.979 1028.2 114.307 1030.37 116.883L1029.48 119.409L1031.41 109.899H1050.73V174.834H1029.93V160.718L1031.56 165.175C1031.37 165.175 1030.77 165.77 1029.78 166.959C1028.79 168.048 1027.3 169.386 1025.32 170.971C1023.44 172.457 1021.06 173.744 1018.19 174.834C1015.42 176.023 1012.1 176.617 1008.23 176.617ZM1014.18 159.678C1017.94 159.678 1021.11 158.885 1023.69 157.3C1026.26 155.616 1028.34 153.139 1029.93 149.87V133.971C1028.74 130.801 1026.66 128.275 1023.69 126.393C1020.82 124.511 1017.4 123.569 1013.44 123.569C1010.46 123.569 1007.69 124.362 1005.11 125.947C1002.64 127.433 1000.66 129.513 999.17 132.188C997.684 134.863 996.941 137.933 996.941 141.401C996.941 144.868 997.734 147.988 999.319 150.762C1000.9 153.536 1002.98 155.715 1005.56 157.3C1008.23 158.885 1011.11 159.678 1014.18 159.678ZM1088.81 176.171C1083.46 176.171 1078.46 175.23 1073.8 173.348C1069.25 171.466 1065.38 168.841 1062.21 165.473L1070.83 154.031C1074 156.904 1076.92 158.984 1079.6 160.272C1082.37 161.461 1084.85 162.055 1087.03 162.055C1089.6 162.055 1091.73 161.659 1093.42 160.866C1095.1 160.074 1095.94 158.786 1095.94 157.003C1095.94 155.319 1095.25 153.981 1093.86 152.991C1092.57 152 1090.89 151.208 1088.81 150.613C1086.73 149.92 1084.5 149.227 1082.12 148.533C1076.18 146.651 1071.87 143.927 1069.2 140.36C1066.62 136.695 1065.33 132.733 1065.33 128.473C1065.33 125.204 1066.17 121.935 1067.86 118.666C1069.64 115.298 1072.42 112.524 1076.18 110.345C1080.04 108.066 1085 106.927 1091.04 106.927C1096.49 106.927 1101.09 107.472 1104.86 108.562C1108.62 109.651 1112.19 111.434 1115.56 113.911L1107.68 126.096C1105.8 124.61 1103.67 123.371 1101.29 122.381C1099.01 121.291 1096.88 120.697 1094.9 120.598C1092.23 120.499 1090.15 120.994 1088.66 122.084C1087.18 123.074 1086.43 124.263 1086.43 125.65C1086.33 127.532 1087.03 129.018 1088.51 130.108C1090.1 131.197 1092.08 132.039 1094.46 132.634C1096.83 133.228 1099.16 133.921 1101.44 134.714C1106.1 136.299 1109.81 138.577 1112.58 141.549C1115.36 144.422 1116.75 148.285 1116.75 153.139C1116.75 157.102 1115.71 160.866 1113.62 164.432C1111.64 167.9 1108.57 170.723 1104.41 172.902C1100.35 175.082 1095.15 176.171 1088.81 176.171ZM1135.8 81.3692H1156.61V109.602H1172.36V125.798H1156.61V174.834H1135.8V125.798H1125.7V109.602H1135.8V81.3692ZM1183.73 109.899H1204.54V174.834H1183.73V109.899ZM1183.29 86.8671C1183.29 83.7962 1184.48 81.2701 1186.85 79.2889C1189.33 77.3076 1191.96 76.317 1194.73 76.317C1197.5 76.317 1200.03 77.3076 1202.31 79.2889C1204.69 81.2701 1205.87 83.7962 1205.87 86.8671C1205.87 89.938 1204.69 92.4641 1202.31 94.4453C1200.03 96.3275 1197.5 97.2686 1194.73 97.2686C1191.96 97.2686 1189.33 96.3275 1186.85 94.4453C1184.48 92.4641 1183.29 89.938 1183.29 86.8671ZM1240.37 109.899L1242.01 121.489L1241.71 120.449C1243.99 116.388 1247.21 113.118 1251.37 110.642C1255.53 108.066 1260.63 106.779 1266.68 106.779C1272.82 106.779 1277.92 108.611 1281.98 112.276C1286.14 115.843 1288.27 120.499 1288.37 126.244V174.834H1267.57V133.971C1267.47 131.098 1266.68 128.82 1265.19 127.136C1263.8 125.353 1261.43 124.461 1258.06 124.461C1253.2 124.461 1249.34 126.739 1246.47 131.296C1243.69 135.754 1242.31 141.45 1242.31 148.384V174.834H1221.5V109.899H1240.37ZM1338.85 207.524C1333.01 207.524 1328.06 206.831 1324 205.444C1320.03 204.057 1316.66 202.373 1313.89 200.392C1311.12 198.411 1308.64 196.529 1306.46 194.745L1318.65 180.481C1320.92 182.561 1323.55 184.542 1326.52 186.424C1329.59 188.405 1333.6 189.396 1338.56 189.396C1343.51 189.396 1347.82 188.108 1351.48 185.533C1355.25 183.056 1357.13 179.391 1357.13 174.537V160.272L1357.87 163.987C1356.29 167.355 1353.42 170.327 1349.26 172.902C1345.1 175.379 1339.65 176.617 1332.91 176.617C1327.07 176.617 1321.62 175.131 1316.57 172.159C1311.61 169.088 1307.65 164.977 1304.68 159.826C1301.71 154.576 1300.22 148.632 1300.22 141.995C1300.22 135.16 1301.81 129.117 1304.98 123.867C1308.15 118.517 1312.26 114.307 1317.31 111.236C1322.36 108.165 1327.71 106.63 1333.36 106.63C1339 106.63 1343.86 107.472 1347.92 109.156C1352.08 110.741 1355.2 112.722 1357.28 115.1L1356.54 117.031L1358.77 109.899H1377.93V174.834C1377.93 181.174 1376.15 186.771 1372.58 191.625C1369.02 196.578 1364.26 200.441 1358.32 203.215C1352.48 206.088 1345.99 207.524 1338.85 207.524ZM1321.17 141.401C1321.17 144.868 1321.96 147.988 1323.55 150.762C1325.13 153.536 1327.26 155.715 1329.94 157.3C1332.71 158.885 1335.78 159.678 1339.15 159.678C1343.41 159.678 1346.98 158.885 1349.85 157.3C1352.82 155.616 1355.25 153.139 1357.13 149.87V133.971C1355.74 130.801 1353.47 128.275 1350.3 126.393C1347.13 124.511 1343.41 123.569 1339.15 123.569C1335.78 123.569 1332.71 124.362 1329.94 125.947C1327.26 127.433 1325.13 129.513 1323.55 132.188C1321.96 134.863 1321.17 137.933 1321.17 141.401Z" fill="white"/>
</svg>
