<svg width="200" height="200" viewBox="0 0 200 200" fill="none" xmlns="http://www.w3.org/2000/svg">
<rect width="200" height="200" fill="#FCA01C"/>
<circle cx="90" cy="90" r="87.5" transform="matrix(1 0 0 -1 10 190)" stroke="black" stroke-width="5"/>
<path d="M45.9082 114.494L154.092 85.5061" stroke="black" stroke-width="5" stroke-linecap="round"/>
<path d="M95.1191 155.787L104.881 44.2131" stroke="black" stroke-width="5" stroke-linecap="round"/>
<path d="M124.987 62.0092C128.102 61.4901 130.949 60.937 133.824 60.5545C137.628 60.0492 141.446 59.5097 145.27 59.3458C146.363 59.298 147.954 60.2131 148.541 61.1692C149.518 62.7467 148.719 64.4267 146.732 63.9282C140.66 62.3984 135.327 64.6452 129.898 66.6667C128.033 67.3633 126.148 68.012 123.902 68.8179C123.861 69.6579 123.806 70.853 123.724 72.5466C128.743 72.2393 133.462 71.8432 138.195 71.7066C140.906 71.6315 143.645 71.8637 146.329 72.2461C147.046 72.3486 147.619 73.489 148.261 74.1583C147.503 74.6773 146.807 75.5241 145.987 75.6607C139.383 76.7466 132.773 77.7778 126.142 78.6451C124.304 78.8841 122.269 78.8773 120.555 78.2968C119.729 78.0168 118.957 76.1593 118.971 75.0256C119.005 71.8569 119.62 68.6949 119.702 65.5194C119.797 61.9409 119.715 58.3487 119.449 54.7839C119.155 50.8571 119.579 50.5088 123.642 50.338C126.087 50.2356 128.484 49.3 130.922 48.8288C134.132 48.2073 137.348 47.5176 140.592 47.1898C141.828 47.0669 143.754 47.4903 144.307 48.3508C145.161 49.6756 145.099 51.5878 145.427 53.2473C144.273 53.0356 143.112 52.8512 141.958 52.6122C140.988 52.4073 139.978 51.82 139.069 51.9634C135.839 52.4824 132.561 52.9809 129.454 53.9644C124.789 55.4395 124.523 56.1292 124.987 62.0092Z" fill="black"/>
<path d="M77.7498 146.206C77.7908 146.159 77.5244 146.766 77.0942 146.923C74.704 147.791 74.5127 149.416 75.2503 151.52C75.5098 152.257 75.7147 153.097 75.6327 153.862C75.4893 155.132 75.3459 156.525 74.6971 157.543C74.424 157.973 72.464 157.98 71.9723 157.481C71.023 156.518 70.0191 155.064 70.0191 153.821C70.026 148.87 70.142 148.904 65.3411 149.771C60.3421 150.673 55.4115 151.52 51.8466 155.767C50.952 156.833 49.313 157.27 48.0223 157.994C47.6262 157.659 47.2301 157.324 46.834 156.99C47.6808 155.364 48.2954 153.568 49.4018 152.155C54.6398 145.462 60.2056 139.029 65.2319 132.179C67.185 129.523 67.8133 125.93 69.4182 122.973C70.0874 121.744 71.7059 120.324 72.9557 120.262C75.3254 120.139 75.1137 122.27 75.0318 124.039C74.7449 129.823 74.3079 135.621 74.4171 141.399C74.4513 142.846 76.3361 144.26 77.7498 146.206ZM69.7801 134.037C66.6865 138.298 64.1597 141.774 61.1958 145.851C63.8524 145.592 65.7987 145.605 67.6221 145.127C68.4689 144.902 69.6025 143.775 69.6777 142.969C69.944 140.32 69.7801 137.629 69.7801 134.037Z" fill="black"/>
<path d="M120.877 131.257C120.091 134.979 119.272 138.687 118.541 142.423C118.186 144.233 118.152 146.48 115.55 146.015C112.798 145.523 113.385 143.099 113.836 141.337C115.024 136.727 116.567 132.22 117.79 127.617C118.602 124.571 118.971 121.41 119.804 118.371C120.112 117.237 121.163 116.308 121.88 115.291C122.946 116.137 124.68 116.814 124.947 117.858C125.753 121.034 125.835 124.38 126.483 127.604C127.03 130.301 127.986 132.91 128.757 135.56C129.208 135.594 129.666 135.621 130.116 135.655C131.407 132.48 133.039 129.393 133.9 126.101C135.129 121.396 135.648 116.506 136.775 111.767C137.062 110.558 138.503 109.622 139.418 108.557C140.149 109.8 141.685 111.2 141.48 112.272C139.65 122.086 137.717 131.927 133.06 140.893C131.154 144.554 128.04 144.581 126.019 140.982C124.325 137.964 123.212 134.624 121.846 131.428C121.532 131.367 121.204 131.312 120.877 131.257Z" fill="black"/>
<path d="M64.6925 89.6128C66.6047 89.3806 68.551 88.8274 70.4222 89.0118C72.3344 89.203 74.2602 89.9611 75.9948 90.8352C76.548 91.1152 76.8211 92.645 76.6299 93.4576C76.4865 94.0518 75.3597 94.8098 74.6768 94.803C69.0222 94.7552 63.3471 94.8371 57.7335 94.3044C52.1063 93.7718 50.119 90.3981 51.9014 84.9689C53.5609 79.9153 55.555 74.9778 57.2896 69.9515C57.8291 68.3808 57.8838 66.653 58.3891 65.0686C58.7374 63.9623 59.2906 62.7877 60.1101 62.0092C60.6154 61.5311 61.954 61.4218 62.5891 61.7701C63.0603 62.0228 63.2993 63.3477 63.1149 64.0579C61.9745 68.4354 60.6974 72.7788 59.4272 77.129C59.0789 78.3241 58.5735 79.4714 58.1569 80.646C55.3228 88.5201 56.3472 89.9133 64.6925 89.6128Z" fill="black"/>
</svg>
