<svg width="424" height="424" viewBox="0 0 424 424" fill="none" xmlns="http://www.w3.org/2000/svg">
<path d="M279.776 18.0638C259.7 -18.7396 89.6706 57.051 0 102.083C89.6706 57.051 280.11 -29.2688 294.922 9.9523C313.436 58.9787 -9.88876 198.008 20.1092 239.102C60.4456 294.357 270.961 188.627 282.941 202.79C294.922 216.953 94.3458 335.706 109.593 353.138C124.841 370.569 221.951 274.695 237.199 282.322C252.446 289.948 139.179 398.896 175.119 416.327C203.872 430.273 350.304 353.439 424 310.223C350.303 353.439 195.722 436.385 166.97 422.439C131.029 405.008 237.199 302.292 228.05 292.433C221.751 285.645 114.693 376.681 99.4451 359.25C84.1975 341.818 280.545 224.815 268.564 210.652C256.584 196.489 52.6133 316.76 7.95975 249.212C-36.6938 181.665 296.698 49.0836 279.776 18.0638Z" fill="#A4EF30"/>
</svg>
