<svg width="395" height="289" viewBox="0 0 395 289" fill="none" xmlns="http://www.w3.org/2000/svg">
<path d="M171.809 17.5776C150.703 -8.16345 2.64018 47.5877 2.64018 47.5877C2.64018 47.5877 146.605 -24.4625 182.821 10.1583C219.037 44.7788 -13.8115 158.048 14.0396 217.004C42.5313 277.317 225.157 129.545 275.554 175.558C308.462 205.603 230.707 251.384 247.073 268.275C268.52 290.409 394.179 225.177 394.179 225.177C394.179 225.177 261.804 316.938 234.255 279.971C210.716 248.386 293.23 216.967 263.202 189.55C212.805 143.537 31.1318 285.489 2.64018 225.177C-25.2109 166.22 192.915 43.3187 171.809 17.5776Z" fill="#A4EF30"/>
</svg>
