<svg width="1040" height="361" viewBox="0 0 1040 361" fill="none" xmlns="http://www.w3.org/2000/svg">
<path d="M0 32.8962V360.896H1040V32.8962H0Z" fill="black"/>
<path d="M1040 304.896V0.895752H0V304.896L79.4508 297.804L125.534 304.896L232.914 331.451L502.135 304.896L565.178 283.251L607.463 304.896H758.865L819.777 289.389L851.185 293.362H921.797L997.117 311.251L1040 304.896Z" fill="#335DBF"/>
<path d="M1035.72 292.952L1034.36 292.251C1033.78 291.95 1033.14 291.632 1032.51 291.784L1014.23 296.128C1013.91 296.205 1013.57 296.2 1013.25 296.114L1000.74 292.743C999.987 292.539 999.181 292.799 998.683 293.408L990.031 303.983C989.533 304.592 988.727 304.852 987.969 304.648L973.679 300.797L936.456 290.768C936.324 290.732 936.195 290.683 936.073 290.621C936.002 290.585 935.933 290.544 935.866 290.5L924.966 283.209C924.522 282.912 923.979 282.805 923.457 282.913L904.579 286.798C904.275 286.86 903.96 286.851 903.66 286.77L894.019 284.172C893.751 284.1 893.501 283.972 893.285 283.798L876.66 270.38C876.122 269.947 875.401 269.822 874.75 270.05L852.498 277.849C852.119 277.981 851.71 277.997 851.322 277.892L843.684 275.834C843.259 275.72 842.81 275.749 842.404 275.917L827.106 282.259C826.7 282.428 826.25 282.457 825.826 282.343L809.18 277.858C808.403 277.648 807.576 277.927 807.083 278.567L798.135 290.152C797.641 290.792 796.815 291.071 796.038 290.862L783.163 287.393C782.432 287.195 781.652 287.431 781.149 288.001L769.139 301.62C768.637 302.19 767.857 302.426 767.125 302.229L746.153 296.578C745.853 296.497 745.539 296.487 745.234 296.55L731.5 299.376C731.196 299.439 730.882 299.429 730.582 299.348L708.363 293.362C707.877 293.231 707.458 292.921 707.19 292.493L692.673 269.394C692.164 268.583 691.155 268.247 690.265 268.591L682.026 271.776C681.487 271.984 680.884 271.948 680.373 271.676L655.165 258.268C654.817 258.083 654.531 257.799 654.343 257.451L643.874 238.088C643.701 237.768 643.445 237.501 643.133 237.316L631.089 230.175C630.503 229.828 629.782 229.803 629.175 230.111L575.527 257.241C575.249 257.382 574.942 257.455 574.631 257.456L554.115 257.48C553.211 257.482 552.42 258.093 552.186 258.971L551.414 261.865C551.204 262.654 550.541 263.237 549.735 263.34L531.542 265.667C531.465 265.677 531.388 265.691 531.313 265.71C531.259 265.724 531.206 265.739 531.154 265.757L514.862 271.299C514.435 271.444 514.069 271.73 513.824 272.111L498.746 295.524C498.274 296.257 497.387 296.6 496.549 296.374L459.981 286.521L452.968 284.631C452.797 284.585 452.621 284.561 452.443 284.564C449.133 284.62 441.99 285.443 437.834 288.39C433.809 291.245 426.46 301.764 422.72 307.528C422.32 308.144 421.623 308.495 420.894 308.444L391.707 306.393C391.553 306.383 391.399 306.39 391.247 306.415L373.368 309.335L365.24 311.008C364.593 311.141 363.929 310.939 363.418 310.519C360.988 308.524 356.313 305.991 352.087 307.955C347.513 310.081 326.055 299.832 314.791 293.871C314.058 293.483 313.168 293.585 312.542 294.13L290.367 313.436C290.064 313.7 289.69 313.866 289.293 313.913L237.678 320.068C237.475 320.093 237.269 320.086 237.068 320.047L189.894 311.002L172.593 306.34C172.264 306.252 171.964 306.081 171.72 305.843L151.978 286.636C151.445 286.117 150.671 285.938 149.966 286.17L133.177 291.692C132.808 291.813 132.412 291.824 132.038 291.723L127.196 290.419C126.716 290.289 126.204 290.344 125.762 290.574L108.797 299.369C108.133 299.713 107.334 299.656 106.725 299.222L91.2557 288.199C91.1286 288.108 91.0125 288.003 90.9097 287.886L83.6016 279.523C83.0229 278.861 82.083 278.655 81.2828 279.015L55.948 290.408L41.3817 298.638C41.118 298.787 40.8239 298.874 40.5219 298.893L28.0831 299.643L4.17017 298.225L0.591064 297.7C-0.539279 297.662 0.591057 298.573 0.591064 299.71V324.737C0.591088 326.588 1.15697 325.659 2.2637 324.176L10.6188 312.98C10.9855 312.488 11.4263 311.993 12.0352 311.92L16.9389 311.332C17.6541 311.246 18.3599 311.554 18.7868 312.137L25.7883 321.708C26.0575 322.076 26.4431 322.341 26.8817 322.459L30.6252 323.467C30.8217 323.52 31.025 323.543 31.2283 323.534L41.8844 323.076C42.0348 323.07 42.1842 323.046 42.3294 323.006L51.3457 320.512C51.773 320.394 52.1491 320.137 52.415 319.78L60.6098 308.798C60.7701 308.584 60.9715 308.403 61.2021 308.268L68.3725 304.064C68.8333 303.794 69.3823 303.72 69.8975 303.859L82.9491 307.375C83.1456 307.428 83.333 307.511 83.5047 307.621L90.6443 312.187C90.752 312.256 90.8529 312.335 90.9455 312.423L109.306 329.89C109.987 330.538 111.024 330.623 111.8 330.096L119.696 324.73C119.974 324.541 120.294 324.426 120.627 324.394L125.928 323.888C126.731 323.812 127.5 324.227 127.88 324.942L129.549 328.078C130.037 328.995 131.141 329.387 132.094 328.98L133.668 328.308C133.873 328.221 134.09 328.169 134.312 328.153L146.534 327.306C150.64 326.526 159.44 325.126 161.799 325.761C164.057 326.37 170.742 329.918 174.206 331.837C174.5 332 174.745 332.234 174.925 332.52L179.836 340.35C179.928 340.496 180.038 340.63 180.164 340.747C182.434 342.861 187.057 346.939 188.83 347.663C190.443 348.323 196.42 349.84 201.134 351.036L201.141 351.038L201.152 351.041C203.091 351.533 204.815 351.971 205.932 352.272C208.94 353.082 215.594 351.855 218.719 351.101C218.838 351.072 218.952 351.032 219.065 350.981L221.391 349.924C222.068 349.617 222.858 349.712 223.444 350.17L236.59 360.471C237.057 360.837 237.661 360.976 238.239 360.851L252.618 357.745C252.894 357.685 253.154 357.568 253.381 357.4L270.246 344.952C270.968 344.419 271.954 344.434 272.66 344.988L279.736 350.542C279.947 350.708 280.19 350.83 280.449 350.899L289.804 353.42C290 353.473 290.202 353.495 290.404 353.487L303.784 352.937C304.158 352.921 304.519 352.801 304.828 352.589L336.734 330.725C336.995 330.546 337.207 330.309 337.368 330.036C339.111 327.078 343.299 322.189 347.96 323.445L372.245 329.989C372.41 330.033 372.574 330.055 372.745 330.056L395.445 330.197L439.537 331.664C439.939 331.677 440.335 331.569 440.675 331.352L453.396 323.232C453.521 323.152 453.653 323.087 453.792 323.037L483.899 312.169L504.374 306.601C504.714 306.508 505.073 306.508 505.414 306.6L528.241 312.75C528.807 312.903 529.411 312.798 529.894 312.463L551.202 297.69C551.509 297.478 551.869 297.355 552.241 297.337L575.413 296.22C575.897 296.197 576.373 296.351 576.752 296.654L594.531 310.838C595.782 311.836 605.298 316.677 606.841 317.093L621.108 320.937C621.292 320.987 621.481 321.009 621.672 321.004L637.656 320.618C637.847 320.613 638.037 320.636 638.222 320.686L651.829 324.352L659.047 326.297C664.396 327.738 673.417 321.054 678.075 316.82C678.66 316.288 679.494 316.128 680.224 316.428L704.403 326.379C704.496 326.417 704.591 326.448 704.688 326.472C704.755 326.488 704.822 326.501 704.89 326.51L731.338 330.134C731.843 330.204 732.356 330.076 732.771 329.778L756.322 312.846C756.63 312.624 756.994 312.496 757.372 312.474L775.089 311.467C775.344 311.452 775.594 311.389 775.825 311.28L794.29 302.582L801.768 298.24C802.227 297.973 802.773 297.901 803.285 298.039L815.828 301.419C816.364 301.563 816.936 301.477 817.406 301.181L829.078 293.833C829.837 293.355 830.82 293.443 831.483 294.048L840.226 302.028C840.903 302.646 841.911 302.723 842.673 302.217L853.477 295.037C854.068 294.645 854.821 294.596 855.457 294.908L877.328 305.642C877.444 305.698 877.564 305.743 877.688 305.777L890.64 309.267C890.79 309.307 890.944 309.33 891.098 309.334L912.029 309.96C912.129 309.963 912.23 309.959 912.33 309.946L923.285 308.603L943.554 306.562C943.708 306.546 943.862 306.549 944.016 306.569L970.502 310.097C970.94 310.155 971.346 310.358 971.657 310.672L980.528 319.637C980.878 319.991 981.346 320.201 981.841 320.227L996.586 321.01C997.288 321.048 997.957 320.712 998.35 320.127L1002.26 314.294C1002.61 313.783 1003.16 313.459 1003.78 313.413L1016.9 312.442L1031.78 311.9C1032.02 311.892 1032.25 311.926 1032.48 312.001C1032.78 312.102 1033.03 312.323 1033.25 312.554C1035.69 315.105 1040 313.374 1040 309.839V299.966C1040 297.011 1038.35 294.304 1035.72 292.952Z" fill="#EAEFF4"/>
</svg>
