<svg width="1040" height="361" viewBox="0 0 1040 361" fill="none" xmlns="http://www.w3.org/2000/svg">
<path d="M0 0.895752V328.896H1040V0.895752H0Z" fill="black"/>
<path d="M27.7785 283.769L0 308.19V360.896H1040V15.0355L1028.62 24.0185L1013.8 19.4656L998.972 24.0185L985.631 28.6665L982.666 37.2703L966.361 40.729L954.23 33.6852L926.833 37.2703L907.562 44.559L897.186 48.7412L876.434 53.6457H862.599L837.399 48.7412L827.023 60.4515L813.796 53.6457L802.788 65.4702H788.104L781.413 72.1618L765.52 85.5449L747.749 91.4L728.485 114.821L700.966 118.317L673.511 114.821C670.444 119.862 662.824 129.945 656.882 129.945H649.409H635.034L619.142 134.616H604.086H597.097L569.072 122.472L545.719 129.945L527.97 150.788H502.876L484.065 161.706L457.6 180.063L446.834 191.774L403.265 201.916L381.054 207.721H355.661C350.601 207.721 347.782 214.077 347.005 217.255L321.127 247.312L307.507 251.565H297.11L287.077 247.312L272.776 265.149L258.475 272.475L241.154 265.149L238.102 267.648C235.354 269.155 229.066 272.169 225.891 272.169C221.923 272.169 210.628 272.475 208.186 272.169C206.233 271.925 200.453 269.054 197.807 267.648L190.481 260.875C186.818 259.959 178.882 258.128 176.439 258.128C173.997 258.128 165.857 261.751 162.092 263.562L150.187 267.648L147.135 270.033L142.556 265.149L135.84 267.648L128.209 276.443L104.398 263.562L95.8511 260.875H81.1987L74.4831 267.648L68.9884 281.327L60.1359 286.517L49.4518 289.874H44.5677L33.8836 281.327L27.7785 283.769Z" fill="#335DBF"/>
<path fill-rule="evenodd" clipRule="evenodd"
    d="M1040 11.9459C1040 6.11095 1035.27 0.895752 1029.43 0.895752H1023.17H1010.27C1009.94 0.895752 1009.61 0.977893 1009.32 1.13481L992.789 10.0378C992.498 10.1947 992.172 10.2768 991.841 10.2768H978.892C978.107 10.2768 977.396 10.7352 977.071 11.4492L971.436 23.8461C971.112 24.56 970.4 25.0184 969.615 25.0184H954.821H916.285C916.068 25.0184 915.852 24.983 915.646 24.9136L903.241 20.7315C902.736 20.5613 902.184 20.5996 901.707 20.8379L884.472 29.4554C884.195 29.5942 883.888 29.6665 883.578 29.6665H873.597C873.32 29.6665 873.045 29.6088 872.791 29.4971L853.279 20.9117C852.648 20.6342 851.919 20.701 851.349 21.0885L831.863 34.339C831.531 34.5646 831.14 34.6852 830.738 34.6852H822.83C822.391 34.6852 821.964 34.8297 821.615 35.0965L808.471 45.1477C808.122 45.4145 807.695 45.559 807.256 45.559H790.023C789.218 45.559 788.492 46.0413 788.18 46.7829L782.519 60.2276C782.207 60.9692 781.48 61.4515 780.676 61.4515H767.347C766.59 61.4515 765.897 61.8795 765.558 62.5571L757.463 78.7477C757.124 79.4253 756.432 79.8533 755.674 79.8533H733.962C733.651 79.8533 733.345 79.9256 733.067 80.0645L720.529 86.3338C720.251 86.4726 719.945 86.5449 719.634 86.5449H696.631C696.129 86.5449 695.644 86.3555 695.275 86.0145L675.308 67.5832C674.607 66.9361 673.546 66.8742 672.775 67.4353L665.636 72.6269C665.169 72.9667 664.578 73.0879 664.014 72.9591L636.214 66.6047C635.83 66.517 635.481 66.3179 635.21 66.0325L620.114 50.1426C619.865 49.88 619.548 49.69 619.199 49.5931L605.728 45.851C605.073 45.669 604.37 45.8324 603.862 46.2847L559.026 86.23C558.793 86.4371 558.516 86.587 558.215 86.668L538.405 92.0016C537.531 92.2367 536.925 93.0285 536.925 93.9328V96.9125C536.925 97.7246 536.433 98.4561 535.682 98.7635L518.708 105.707C518.585 105.758 518.467 105.82 518.356 105.894L504.046 115.434C503.671 115.684 503.391 116.054 503.252 116.483L494.714 142.875C494.447 143.701 493.678 144.26 492.811 144.26H454.953H447.693C447.515 144.26 447.339 144.283 447.168 144.331C443.984 145.242 437.297 147.881 434.042 151.788C430.888 155.572 426.497 167.578 424.368 174.082C424.141 174.777 423.558 175.295 422.84 175.435L394.12 181.019C393.969 181.049 393.821 181.095 393.681 181.159L377.163 188.591L369.742 192.302C369.152 192.597 368.459 192.575 367.857 192.304C364.996 191.016 359.828 189.794 356.252 192.774C352.381 196 329.016 191.708 316.601 188.898C315.794 188.715 314.96 189.044 314.496 189.729L298.045 214.013C297.821 214.344 297.502 214.601 297.131 214.749L248.859 234.02C248.669 234.096 248.468 234.143 248.264 234.158L200.37 237.679H182.458C182.118 237.679 181.784 237.593 181.486 237.428L157.475 224.088C156.826 223.727 156.032 223.756 155.411 224.161L140.615 233.81C140.29 234.022 139.91 234.135 139.522 234.135H134.51C134.013 234.135 133.533 234.32 133.165 234.655L119.042 247.494C118.489 247.997 117.703 248.149 117.002 247.89L99.2231 241.305C99.077 241.251 98.9379 241.18 98.8083 241.093L89.5969 234.953C88.8676 234.466 87.9066 234.512 87.2263 235.064L65.6871 252.565L53.7355 264.241C53.519 264.452 53.2574 264.612 52.9703 264.708L41.1487 268.648L17.6854 273.475L2.13879 277.084C1.23254 277.294 0 278.102 0 279.032V304.769C0 306.489 2.61939 307.407 3.91162 306.271L28.1112 284.996C28.2822 284.846 28.4776 284.726 28.689 284.642L33.3926 282.76C34.0613 282.493 34.8223 282.605 35.3848 283.055L44.611 290.436C44.9656 290.72 45.4062 290.874 45.8604 290.874H49.736C49.9394 290.874 50.1415 290.843 50.3356 290.782L60.5107 287.585C60.6544 287.539 60.7926 287.478 60.9225 287.402L68.9898 282.673C69.3721 282.449 69.6691 282.104 69.8342 281.693L74.9233 269.024C75.0229 268.776 75.171 268.55 75.359 268.361L81.203 262.467C81.5786 262.088 82.0898 261.875 82.6232 261.875H96.1352C96.3387 261.875 96.541 261.906 96.735 261.967L104.806 264.505C104.928 264.543 105.046 264.593 105.158 264.654L127.389 276.68C128.213 277.126 129.237 276.939 129.851 276.232L136.097 269.034C136.316 268.781 136.596 268.587 136.91 268.47L141.9 266.613C142.655 266.331 143.505 266.531 144.057 267.119L146.476 269.699C147.183 270.454 148.35 270.545 149.166 269.908L150.514 268.855C150.689 268.718 150.886 268.611 151.096 268.539L162.683 264.562C166.448 262.751 174.588 259.128 177.031 259.128C179.368 259.128 186.738 260.805 190.578 261.752C190.904 261.833 191.202 261.994 191.448 262.223L198.208 268.472C198.335 268.589 198.475 268.689 198.627 268.769C201.363 270.212 206.878 272.932 208.777 273.169C210.507 273.386 216.676 273.296 221.538 273.225C223.542 273.195 225.324 273.169 226.482 273.169C229.597 273.169 235.708 270.268 238.533 268.735C238.641 268.677 238.741 268.609 238.836 268.531L240.811 266.913C241.386 266.443 242.174 266.33 242.857 266.619L258.207 273.111C258.752 273.342 259.371 273.319 259.898 273.049L272.987 266.344C273.238 266.215 273.459 266.035 273.635 265.815L286.721 249.493C287.281 248.795 288.238 248.553 289.062 248.903L297.327 252.407C297.573 252.511 297.839 252.565 298.107 252.565H307.793C307.995 252.565 308.196 252.535 308.389 252.474L321.172 248.483C321.529 248.371 321.847 248.162 322.091 247.878L347.283 218.618C347.488 218.379 347.632 218.097 347.717 217.793C348.639 214.501 351.426 208.721 356.252 208.721H381.394C381.564 208.721 381.729 208.699 381.894 208.656L403.857 202.916L446.824 192.914C447.215 192.822 447.57 192.615 447.842 192.319L458.041 181.227C458.14 181.118 458.252 181.021 458.373 180.937L484.656 162.706L503.001 152.058C503.306 151.881 503.652 151.788 504.005 151.788H527.637C528.223 151.788 528.78 151.531 529.16 151.084L545.94 131.379C546.182 131.095 546.498 130.885 546.853 130.771L568.948 123.701C569.409 123.553 569.908 123.578 570.353 123.77L591.176 132.794C592.642 133.429 603.08 135.616 604.677 135.616H619.447C619.638 135.616 619.826 135.588 620.009 135.534L635.349 131.026C635.532 130.972 635.722 130.945 635.913 130.945H650H657.473C663.01 130.945 670.004 122.19 673.413 116.917C673.842 116.254 674.606 115.885 675.389 115.984L701.304 119.284C701.472 119.306 701.641 119.306 701.809 119.285L728.288 115.921C728.794 115.856 729.257 115.601 729.581 115.207L747.972 92.8477C748.212 92.5553 748.531 92.3371 748.89 92.2186L765.744 86.6658C765.987 86.5859 766.211 86.4604 766.407 86.2961L782.004 73.1618L788.109 67.056C788.484 66.6809 788.993 66.4702 789.524 66.4702H802.508C803.063 66.4702 803.594 66.2393 803.972 65.8329L813.355 55.7543C813.965 55.0987 814.937 54.9289 815.733 55.3387L826.233 60.7407C827.045 61.1589 828.038 60.9728 828.645 60.2886L837.233 50.5963C837.702 50.0664 838.417 49.8242 839.112 49.9595L863.001 54.6089C863.126 54.6334 863.254 54.6457 863.383 54.6457H876.792C876.947 54.6457 877.101 54.6277 877.252 54.5921L897.63 49.776C897.728 49.7529 897.824 49.7223 897.918 49.6847L908.153 45.559L927.206 38.3525C927.351 38.2979 927.501 38.2601 927.654 38.2401L954.146 34.7735C954.584 34.7162 955.028 34.8054 955.41 35.027L966.286 41.3423C966.715 41.5912 967.221 41.6721 967.705 41.5692L982.15 38.5051C982.837 38.3594 983.397 37.8641 983.626 37.2002L985.906 30.5842C986.106 30.0047 986.56 29.5488 987.139 29.3471L999.563 25.0184L1013.8 20.6459C1014.18 20.5284 1014.59 20.5284 1014.97 20.6459L1028.21 24.7104C1028.83 24.9033 1029.52 24.7755 1030.03 24.3685L1035.91 19.8083C1038.49 17.8071 1040 15.2107 1040 11.9459Z"
    fill="#EAEFF4" />
</svg>
